<svg id="Layer_1" data-name="Layer 1" xmlns="http://www.w3.org/2000/svg" viewBox="0 0 512 512"><defs><style>.cls-1{fill:#dde5e8;}.cls-2{fill:#71c6c4;}.cls-3{opacity:0.06;}.cls-4{fill:#17292d;}.cls-5{fill:#afc3c9;}</style></defs><title>image-flat</title><path class="cls-1" d="M460.8,153.6V448a64,64,0,0,1-64,64H115.2a64,64,0,0,1-64-64V64a64,64,0,0,1,64-64H307.33l33.41,33.41Z"/><path class="cls-2" d="M460.8,153.6H371.2a64,64,0,0,1-64-64V0h.13Z"/><g class="cls-3"><path class="cls-4" d="M371.2,153.6a64,64,0,0,1-64-64v25.6a64,64,0,0,0,64,64h89.6V153.6Z"/></g><rect class="cls-5" x="153.6" y="243.2" width="204.8" height="179.2" rx="32" ry="32"/><polygon class="cls-1" points="320 384 281.6 320 243.2 358.4 230.4 345.6 192 384 320 384"/></svg>